<?xml version="1.0" encoding="utf-8"?>
<!-- Generator: Adobe Illustrator 16.0.0, SVG Export Plug-In . SVG Version: 6.00 Build 0)  -->
<!DOCTYPE svg PUBLIC "-//W3C//DTD SVG 1.1//EN" "http://www.w3.org/Graphics/SVG/1.1/DTD/svg11.dtd">
<svg version="1.1" id="Capa_1" xmlns="http://www.w3.org/2000/svg" xmlns:xlink="http://www.w3.org/1999/xlink" x="0px" y="0px"
	 width="460px" height="499px" viewBox="0 0 460 499" enable-background="new 0 0 460 499" xml:space="preserve">
<g>
	<g>
		<path fill-rule="evenodd" clip-rule="evenodd" fill="#FF8D24" d="M346.685,223.304c-1.207,1.466-2.693,4.107-4.9,5.819
			c-26.857,20.826-53.812,41.527-80.76,62.235c-24.703,18.982-49.426,37.938-74.149,56.894c-7.116,5.457-9.528,5.377-15.926-0.594
			c-18.022-16.828-36.075-33.625-53.952-50.604c-1.881-1.786-3.672-4.711-3.68-7.112c-0.006-2.102,2.18-5.405,4.086-6.012
			c2.387-0.76,6.104-0.151,8.141,1.359c4.789,3.552,8.931,7.979,13.314,12.072c12.298,11.485,24.672,22.893,36.814,34.541
			c2.834,2.721,4.601,2.91,7.816,0.428c49.448-38.182,98.994-76.237,148.611-114.201c2.217-1.696,5.305-3.107,7.998-3.126
			C344.03,214.977,346.226,217.913,346.685,223.304z"/>
		<g>
			<path fill="#005096" d="M230,475.457c-105.776,0-191.833-86.057-191.833-191.833S124.224,91.791,230,91.791
				c105.778,0,191.835,86.056,191.835,191.833S335.778,475.457,230,475.457z M230,106.791c-97.506,0-176.833,79.327-176.833,176.833
				c0,97.505,79.327,176.833,176.833,176.833c97.508,0,176.835-79.328,176.835-176.833C406.835,186.118,327.508,106.791,230,106.791
				z"/>
		</g>
	</g>
	<text transform="matrix(1 0 0 1 22.7905 64.127)" fill="#005096" font-family="'BwAletaNo20DEMO-ExtraBold'" font-size="46.1188">Cierre Definitivo</text>
</g>
</svg>
